# xmcd
#
# Track frame offsets:
#	182
#	15735
#	35532
#	51435
#	65815
#	77892
#	91630
#	105587
#	122297
#	136932
#	149752
#	166955
#	180982
#
# Disc length: 2618 seconds
#
# Revision: 1
# Processed by: cddbd v1.5.2PL0 Copyright (c) Steve Scherf et al.
# Submitted via: EasyCDDAExtractor 11.0.0.1
#
DISCID=ab0a380d
DTITLE=Various Artist - ΣΥΛΛΟΓΕΣ ΤΣΙΓΑΡΑ ΛΑΪΚΑ ΤΡΑΓΟΥΔΙΑ ΝΟΤΙΑ
DYEAR=1996
DGENRE=ΛΑΪΚΑ
TTITLE0=MOSHOLIOU - H nyhta
TTITLE1=XYLOURIS - Pos na sopaso
TTITLE2=MPITHIKOTSIS - To tragoudi tis ksenitias
TTITLE3=PERPINIADIS, NORMA - Pou na horesei to oneiro
TTITLE4=MPITHIKOTSIS - Paei o kairos
TTITLE5=ALEXIOU - Sou stelno hairetismata
TTITLE6=MOSHOLIOU - Min pieis nero
TTITLE7=MPITHIKOTSIS - Drapetsona
TTITLE8=KAZANTZIDIS - Otan vlepete na klaio
TTITLE9=ALEXIOU - To ksero pia den m'agapas
TTITLE10=PANOU - Ferte mia koupa me krasi
TTITLE11=MITSIAS, GIKA - Afta ta heria
TTITLE12=KAZANTZIDIS, MARINELLA - Oti agapao ego pethainei
EXTD=
EXTT0=
EXTT1=
EXTT2=
EXTT3=
EXTT4=
EXTT5=
EXTT6=
EXTT7=
EXTT8=
EXTT9=
EXTT10=
EXTT11=
EXTT12=
PLAYORDER=
